<svg version="1.1" id="Layer_1" xmlns="http://www.w3.org/2000/svg" xmlns:xlink="http://www.w3.org/1999/xlink" x="0px" y="0px"
	 width="100%" viewBox="0 0 1024 1024" enable-background="new 0 0 1024 1024" xml:space="preserve">
<path fill="#010101" opacity="0.000000" stroke="none" 
	d="
M643.000000,1025.000000 
	C429.038574,1025.000000 215.077164,1025.000000 1.057878,1025.000000 
	C1.057878,683.766785 1.057878,342.533600 1.057878,1.000000 
	C214.694611,1.000000 428.389343,1.000000 642.762939,1.322918 
	C639.781921,4.203985 635.484070,6.179594 634.328430,11.453283 
	C633.855652,12.429632 633.683289,13.251086 633.371643,14.416321 
	C633.084351,15.487845 632.936340,16.215590 632.332764,16.937021 
	C631.045715,16.953541 630.214111,16.996342 629.382568,16.996380 
	C483.144287,17.003056 336.906006,17.005962 190.667709,17.018568 
	C188.840149,17.018726 187.012604,17.141586 184.707489,17.134663 
	C174.135651,17.133560 164.041351,17.204966 153.487823,17.198917 
	C136.390198,16.441013 119.812019,16.465908 103.720230,21.662930 
	C80.679420,29.104216 61.561035,42.157459 47.115017,61.706303 
	C33.131199,80.629692 24.996296,101.675919 24.994501,125.448387 
	C24.975019,383.353455 25.030298,641.258545 24.886364,899.163574 
	C24.877016,915.911377 28.905603,931.482483 36.019527,946.271118 
	C46.548195,968.158325 63.091782,984.677185 84.232529,996.378479 
	C96.397133,1003.111572 109.780548,1007.151733 123.504402,1008.736877 
	C133.517960,1009.893616 143.790375,1008.809143 154.413940,1008.816284 
	C164.982162,1008.870239 175.083832,1008.831604 185.637436,1008.865112 
	C297.182251,1008.955078 408.275146,1008.969543 519.368042,1008.992676 
	C557.175293,1009.000549 594.982544,1009.030334 632.892090,1009.379822 
	C633.153687,1010.137573 633.312927,1010.565613 633.362549,1011.341064 
	C634.550720,1016.885498 637.053955,1021.115601 642.291321,1023.273560 
	C642.695984,1023.440247 642.771484,1024.405762 643.000000,1025.000000 
z"/>
<path fill="#010101" opacity="0.000000" stroke="none" 
	d="
M751.000000,1.000000 
	C842.308655,1.000000 933.617249,1.000000 1024.962891,1.000000 
	C1024.962891,342.216400 1024.962891,683.432800 1024.962891,1025.000000 
	C933.975403,1025.000000 842.950317,1025.000000 751.227051,1024.681885 
	C753.440735,1021.417542 756.620972,1018.680969 759.152588,1015.438049 
	C760.441956,1013.786316 760.565613,1011.224609 761.669434,1009.075684 
	C777.414795,1009.046448 792.707031,1008.997009 807.999207,1008.991028 
	C820.215393,1008.986206 832.220520,1007.369751 843.680603,1003.156128 
	C852.022644,1000.088867 860.055908,996.181885 868.572632,992.689331 
	C869.847412,992.695984 870.776489,992.662598 872.169495,992.806396 
	C887.598877,993.007812 902.501099,993.265869 917.220337,989.250000 
	C945.478577,981.540344 967.414124,965.394043 983.274109,940.990295 
	C995.959778,921.470947 1001.086731,899.861206 1001.075134,876.620605 
	C1000.954834,634.208984 1001.001221,391.797302 1000.997009,149.385620 
	C1000.996948,146.553604 1000.992004,143.719818 1000.898560,140.889862 
	C1000.449707,127.284561 997.713013,114.078140 992.183472,101.706528 
	C970.003967,52.082855 924.200317,28.550097 871.424927,33.331863 
	C870.758301,33.274361 870.377441,33.241810 869.692871,33.031357 
	C868.928894,32.911236 868.468567,32.969028 867.638184,32.974747 
	C861.184570,30.261393 855.100891,27.600113 848.840759,24.697777 
	C848.108765,24.307922 847.553223,24.159122 846.748413,23.799284 
	C845.660828,23.411022 844.822510,23.233797 843.753601,22.817322 
	C842.683228,22.380116 841.843384,22.182159 840.685303,21.797125 
	C838.921143,21.371485 837.475281,21.132923 835.818604,20.644865 
	C834.380188,20.099159 833.152527,19.802948 831.535400,19.359833 
	C829.763916,19.142456 828.381836,19.071989 826.703979,18.762629 
	C822.917053,18.168747 819.426025,17.813759 815.481934,17.353249 
	C797.093201,17.141766 779.157410,17.035801 761.018433,16.606628 
	C759.179993,10.424207 757.530457,4.578890 750.907288,2.209748 
	C750.806763,2.173817 750.963379,1.419207 751.000000,1.000000 
z"/>
<path fill="#E4E7E7" opacity="1.000000" stroke="none" 
	d="
M713.000000,1025.000000 
	C702.645752,1025.000000 692.291565,1025.000000 681.468628,1024.537354 
	C681.000000,683.049805 681.000000,342.024902 681.000000,1.000000 
	C691.354248,1.000000 701.708435,1.000000 712.531372,1.462638 
	C713.000000,342.950195 713.000000,683.975098 713.000000,1025.000000 
z"/>
<path fill="#E4E7E7" opacity="1.000000" stroke="none" 
	d="
M761.216187,1009.074280 
	C760.565613,1011.224609 760.441956,1013.786316 759.152588,1015.438049 
	C756.620972,1018.680969 753.440735,1021.417542 750.764404,1024.681885 
	C743.979065,1025.000000 736.958069,1025.000000 729.468567,1024.537354 
	C729.000000,683.049805 729.000000,342.024902 729.000000,1.000000 
	C736.020935,1.000000 743.041931,1.000000 750.531433,1.000000 
	C750.963379,1.419207 750.806763,2.173817 750.907288,2.209748 
	C757.530457,4.578890 759.179993,10.424207 760.924438,17.067879 
	C761.022400,19.851685 761.001343,21.851034 761.001343,23.850384 
	C760.999878,349.931824 760.999512,676.013306 761.008850,1002.094727 
	C761.008911,1004.421265 761.144104,1006.747742 761.216187,1009.074280 
z"/>
<path fill="#E4E7E7" opacity="1.000000" stroke="none" 
	d="
M643.468506,1025.000000 
	C642.771484,1024.405762 642.695984,1023.440247 642.291321,1023.273560 
	C637.053955,1021.115601 634.550720,1016.885498 633.742310,1011.299438 
	C634.821106,1009.221985 635.926697,1007.533630 635.927063,1005.845093 
	C636.002686,676.960449 636.001587,348.075836 635.957825,19.191225 
	C635.957581,17.456453 635.317688,15.721767 634.972839,13.532528 
	C634.855713,12.484806 634.742310,11.891598 634.628845,11.298389 
	C635.484070,6.179594 639.781921,4.203985 643.220886,1.322918 
	C650.020935,1.000000 657.041931,1.000000 664.531433,1.462638 
	C665.000000,342.950195 665.000000,683.975098 665.000000,1025.000000 
	C657.979065,1025.000000 650.958069,1025.000000 643.468506,1025.000000 
z"/>
<path fill="#CCD0D2" opacity="1.000000" stroke="none" 
	d="
M728.537659,1.000000 
	C729.000000,342.024902 729.000000,683.049805 729.000000,1024.537354 
	C723.974915,1025.000000 718.949768,1025.000000 713.462341,1025.000000 
	C713.000000,683.975098 713.000000,342.950195 713.000000,1.462638 
	C718.025085,1.000000 723.050232,1.000000 728.537659,1.000000 
z"/>
<path fill="#CCD0D2" opacity="1.000000" stroke="none" 
	d="
M665.462341,1025.000000 
	C665.000000,683.975098 665.000000,342.950195 665.000000,1.462638 
	C670.025085,1.000000 675.050232,1.000000 680.537659,1.000000 
	C681.000000,342.024902 681.000000,683.049805 681.000000,1024.537354 
	C675.974915,1025.000000 670.949768,1025.000000 665.462341,1025.000000 
z"/>
<path fill="#3DB39E" opacity="1.000000" stroke="none" 
	d="
M185.185043,17.207172 
	C187.012604,17.141586 188.840149,17.018726 190.667709,17.018568 
	C336.906006,17.005962 483.144287,17.003056 629.382568,16.996380 
	C630.214111,16.996342 631.045715,16.953541 632.435364,17.396393 
	C633.005676,111.073151 633.019714,204.284225 633.020264,297.495300 
	C633.020264,299.986633 632.875305,302.477997 632.348022,304.976807 
	C538.247131,304.989349 444.596039,305.031799 350.945221,304.892059 
	C346.120392,304.884888 344.884064,306.183594 344.893555,310.969086 
	C345.043945,386.789581 344.999054,462.610474 344.998993,538.431274 
	C344.998993,545.001099 344.999359,545.000183 351.345032,545.000854 
	C445.162689,545.010681 538.980347,545.020752 632.873230,545.492310 
	C632.979919,546.618652 633.038940,547.283447 633.038940,547.948303 
	C633.040039,699.824646 633.037781,851.701050 633.023804,1003.577393 
	C633.023682,1005.401611 632.871155,1007.225891 632.789795,1009.050110 
	C594.982544,1009.030334 557.175293,1009.000549 519.368042,1008.992676 
	C408.275146,1008.969543 297.182251,1008.955078 185.578094,1008.415161 
	C185.046036,1006.062378 185.006989,1004.231628 185.006958,1002.400940 
	C185.003098,677.330688 185.001480,352.260498 185.008484,27.190271 
	C185.008545,23.862570 185.123642,20.534872 185.185043,17.207172 
z"/>
<path fill="#324D5B" opacity="1.000000" stroke="none" 
	d="
M153.947403,1008.723755 
	C143.790375,1008.809143 133.517960,1009.893616 123.504402,1008.736877 
	C109.780548,1007.151733 96.397133,1003.111572 84.232529,996.378479 
	C63.091782,984.677185 46.548195,968.158325 36.019527,946.271118 
	C28.905603,931.482483 24.877016,915.911377 24.886364,899.163574 
	C25.030298,641.258545 24.975019,383.353455 24.994501,125.448387 
	C24.996296,101.675919 33.131199,80.629692 47.115017,61.706303 
	C61.561035,42.157459 80.679420,29.104216 103.720230,21.662930 
	C119.812019,16.465908 136.390198,16.441013 153.482513,17.593544 
	C153.624313,21.024637 153.039124,23.983610 153.038742,26.942657 
	C152.997482,349.910797 152.996323,672.878906 153.039307,995.847046 
	C153.039886,1000.139343 153.631592,1004.431458 153.947403,1008.723755 
z"/>
<path fill="#2B424D" opacity="1.000000" stroke="none" 
	d="
M154.413940,1008.816284 
	C153.631592,1004.431458 153.039886,1000.139343 153.039307,995.847046 
	C152.996323,672.878906 152.997482,349.910797 153.038742,26.942657 
	C153.039124,23.983610 153.624313,21.024637 153.941772,17.671001 
	C164.041351,17.204966 174.135651,17.133560 184.707489,17.134663 
	C185.123642,20.534872 185.008545,23.862570 185.008484,27.190271 
	C185.001480,352.260498 185.003098,677.330688 185.006958,1002.400940 
	C185.006989,1004.231628 185.046036,1006.062378 185.126190,1008.343018 
	C175.083832,1008.831604 164.982162,1008.870239 154.413940,1008.816284 
z"/>
<path fill="#EAECED" opacity="1.000000" stroke="none" 
	d="
M632.892090,1009.379822 
	C632.871155,1007.225891 633.023682,1005.401611 633.023804,1003.577393 
	C633.037781,851.701050 633.040039,699.824646 633.038940,547.948303 
	C633.038940,547.283447 632.979919,546.618652 632.949707,545.027344 
	C632.891907,523.062317 632.832764,502.023773 632.863037,480.524414 
	C632.892883,469.714020 632.833252,459.364410 632.858154,448.552155 
	C632.886353,432.388062 632.830017,416.686615 632.863037,400.524414 
	C632.892822,389.714020 632.833252,379.364410 632.858154,368.552155 
	C632.894470,347.049438 632.846191,326.009369 632.797913,304.969330 
	C632.875305,302.477997 633.020264,299.986633 633.020264,297.495300 
	C633.019714,204.284225 633.005676,111.073151 632.890869,17.402704 
	C632.936340,16.215590 633.084351,15.487845 633.616943,14.441694 
	C634.324158,14.060917 634.649170,14.015503 634.976501,13.987044 
	C635.317688,15.721767 635.957581,17.456453 635.957825,19.191225 
	C636.001587,348.075836 636.002686,676.960449 635.927063,1005.845093 
	C635.926697,1007.533630 634.821106,1009.221985 633.851929,1010.952026 
	C633.312927,1010.565613 633.153687,1010.137573 632.892090,1009.379822 
z"/>
<path fill="#CCD0D2" opacity="1.000000" stroke="none" 
	d="
M634.972839,13.532530 
	C634.649170,14.015503 634.324158,14.060917 633.756226,14.097914 
	C633.683289,13.251086 633.855652,12.429632 634.328430,11.453283 
	C634.742310,11.891598 634.855713,12.484806 634.972839,13.532530 
z"/>
<path fill="#3DB39E" opacity="1.000000" stroke="none" 
	d="
M761.669434,1009.075684 
	C761.144104,1006.747742 761.008911,1004.421265 761.008850,1002.094727 
	C760.999512,676.013306 760.999878,349.931824 761.001343,23.850384 
	C761.001343,21.851034 761.022400,19.851685 761.127563,17.391085 
	C779.157410,17.035801 797.093201,17.141766 815.634644,17.678135 
	C819.826721,18.406200 823.413269,18.703863 826.999756,19.001522 
	C828.381836,19.071989 829.763916,19.142456 831.631104,19.641232 
	C833.420532,20.344477 834.724976,20.619419 836.029358,20.894361 
	C837.475281,21.132923 838.921143,21.371485 840.720337,22.113379 
	C842.043762,22.763329 843.013916,22.909946 843.984131,23.056568 
	C844.822510,23.233797 845.660828,23.411022 846.769836,24.085659 
	C847.699402,24.701658 848.358276,24.820250 849.017212,24.938837 
	C855.100891,27.600113 861.184570,30.261393 867.644897,33.240757 
	C868.021973,33.736229 868.022400,33.913612 868.286255,34.287579 
	C903.128052,57.728455 921.009705,89.925858 921.005615,131.845215 
	C920.980896,385.927155 921.001343,640.009094 920.945984,894.091003 
	C920.944641,900.392090 920.240540,906.692993 919.643799,913.186157 
	C919.418274,913.939087 919.413147,914.499939 919.299805,915.474854 
	C918.996704,917.534973 918.970764,919.222168 918.581604,920.820923 
	C912.209900,946.994263 898.600098,968.555481 877.406006,985.268799 
	C874.323242,987.699768 871.285461,990.187744 868.226929,992.649292 
	C860.055908,996.181885 852.022644,1000.088867 843.680603,1003.156128 
	C832.220520,1007.369751 820.215393,1008.986206 807.999207,1008.991028 
	C792.707031,1008.997009 777.414795,1009.046448 761.669434,1009.075684 
z"/>
<path fill="#EAECED" opacity="1.000000" stroke="none" 
	d="
M919.864197,912.994019 
	C920.240540,906.692993 920.944641,900.392090 920.945984,894.091003 
	C921.001343,640.009094 920.980896,385.927155 921.005615,131.845215 
	C921.009705,89.925858 903.128052,57.728455 868.581665,34.293488 
	C869.074646,33.804966 869.535583,33.507114 869.996521,33.209259 
	C870.377441,33.241810 870.758301,33.274361 871.688782,33.629456 
	C877.029480,35.000687 881.880493,35.832104 886.601685,37.134453 
	C911.325012,43.954460 931.195251,57.904835 946.710632,78.248138 
	C954.529663,88.500153 959.858093,100.017014 964.259521,112.305603 
	C964.486084,113.389328 964.794983,114.160378 965.079956,115.326859 
	C965.277893,116.471222 965.499817,117.220161 965.598145,118.264130 
	C965.986511,119.693840 966.498413,120.828522 966.974731,122.386551 
	C967.139954,124.200722 967.340820,125.591545 967.423035,127.381927 
	C967.896667,131.499100 968.488892,135.216705 969.013123,139.402954 
	C968.967651,143.369949 969.009949,146.868317 969.010010,150.366669 
	C969.013062,392.103882 969.012451,633.841064 969.015564,875.578308 
	C969.015625,879.406555 969.058411,883.234741 968.871216,887.383911 
	C968.287964,891.475403 967.914856,895.245850 967.397217,899.414429 
	C967.171326,901.220093 967.089966,902.627563 966.772095,904.249390 
	C966.258301,905.652405 965.981079,906.841187 965.516296,908.377075 
	C965.252563,909.503845 965.176514,910.283508 964.879761,911.296082 
	C964.548218,912.354675 964.437195,913.180298 964.078491,914.294617 
	C962.420654,918.518127 961.010498,922.452942 959.358948,926.579590 
	C958.849548,927.515442 958.581604,928.259460 958.049805,929.259521 
	C943.548828,957.667725 921.792969,977.264832 891.711121,987.216919 
	C885.162476,989.383423 878.380188,990.843750 871.705505,992.629272 
	C870.776489,992.662598 869.847412,992.695984 868.572632,992.689331 
	C871.285461,990.187744 874.323242,987.699768 877.406006,985.268799 
	C898.600098,968.555481 912.209900,946.994263 918.581604,920.820923 
	C918.970764,919.222168 918.996704,917.534973 919.548218,915.403809 
	C919.891174,914.277039 919.877686,913.635559 919.864197,912.994019 
z"/>
<path fill="#339684" opacity="1.000000" stroke="none" 
	d="
M965.100342,911.063110 
	C965.176514,910.283508 965.252563,909.503845 965.768311,908.270325 
	C966.474792,906.555969 966.741699,905.295532 967.008667,904.035095 
	C967.089966,902.627563 967.171326,901.220093 967.707458,899.267944 
	C968.468567,894.836548 968.774963,890.949768 969.081299,887.062988 
	C969.058411,883.234741 969.015625,879.406555 969.015564,875.578308 
	C969.012451,633.841064 969.013062,392.103882 969.010010,150.366669 
	C969.009949,146.868317 968.967651,143.369949 969.267883,139.116531 
	C968.907654,134.568436 968.224670,130.775406 967.541687,126.982376 
	C967.340820,125.591545 967.139954,124.200722 967.193665,122.210060 
	C966.872742,120.396523 966.297241,119.182816 965.721680,117.969101 
	C965.499817,117.220161 965.277893,116.471222 965.295776,115.131462 
	C965.137634,113.691414 964.739746,112.842171 964.341858,111.992935 
	C959.858093,100.017014 954.529663,88.500153 946.710632,78.248138 
	C931.195251,57.904835 911.325012,43.954460 886.601685,37.134453 
	C881.880493,35.832104 877.029480,35.000687 871.974487,33.654404 
	C924.200317,28.550097 970.003967,52.082855 992.183472,101.706528 
	C997.713013,114.078140 1000.449707,127.284561 1000.898560,140.889862 
	C1000.992004,143.719818 1000.996948,146.553604 1000.997009,149.385620 
	C1001.001221,391.797302 1000.954834,634.208984 1001.075134,876.620605 
	C1001.086731,899.861206 995.959778,921.470947 983.274109,940.990295 
	C967.414124,965.394043 945.478577,981.540344 917.220337,989.250000 
	C902.501099,993.265869 887.598877,993.007812 872.169495,992.806396 
	C878.380188,990.843750 885.162476,989.383423 891.711121,987.216919 
	C921.792969,977.264832 943.548828,957.667725 958.369141,929.159424 
	C959.168274,927.998108 959.384277,927.192932 959.600342,926.387756 
	C961.010498,922.452942 962.420654,918.518127 964.359009,914.232178 
	C964.958252,912.941711 965.029297,912.002441 965.100342,911.063110 
z"/>
<path fill="#339684" opacity="1.000000" stroke="none" 
	d="
M826.703979,18.762630 
	C823.413269,18.703863 819.826721,18.406200 816.087585,17.783653 
	C819.426025,17.813759 822.917053,18.168747 826.703979,18.762630 
z"/>
<path fill="#339684" opacity="1.000000" stroke="none" 
	d="
M835.818604,20.644865 
	C834.724976,20.619419 833.420532,20.344477 832.020508,19.788137 
	C833.152527,19.802948 834.380188,20.099159 835.818604,20.644865 
z"/>
<path fill="#339684" opacity="1.000000" stroke="none" 
	d="
M843.753601,22.817318 
	C843.013916,22.909946 842.043762,22.763329 841.038574,22.300457 
	C841.843384,22.182159 842.683228,22.380116 843.753601,22.817318 
z"/>
<path fill="#339684" opacity="1.000000" stroke="none" 
	d="
M848.840759,24.697781 
	C848.358276,24.820250 847.699402,24.701658 847.019043,24.296696 
	C847.553223,24.159122 848.108765,24.307922 848.840759,24.697781 
z"/>
<path fill="#339684" opacity="1.000000" stroke="none" 
	d="
M869.692871,33.031353 
	C869.535583,33.507114 869.074646,33.804966 868.318298,34.096909 
	C868.022400,33.913612 868.021973,33.736229 868.014893,33.292831 
	C868.468567,32.969028 868.928894,32.911236 869.692871,33.031353 
z"/>
<path fill="#EEC75E" opacity="1.000000" stroke="none" 
	d="
M632.773682,400.985199 
	C632.830017,416.686615 632.886353,432.388062 632.409668,448.548309 
	C562.276978,449.004761 492.677307,449.002350 423.077606,449.000031 
	C419.913971,448.999939 416.738525,449.172058 413.589935,448.954590 
	C410.173737,448.718658 408.826508,449.885559 408.934723,453.462067 
	C409.156250,460.781647 409.243408,468.123718 408.908783,475.434723 
	C408.708893,479.801788 410.021301,481.103760 414.483948,481.095215 
	C487.247009,480.955750 560.010376,480.990082 632.773682,480.985199 
	C632.832764,502.023773 632.891907,523.062317 632.874512,544.565796 
	C538.980347,545.020752 445.162689,545.010681 351.345032,545.000854 
	C344.999359,545.000183 344.998993,545.001099 344.998993,538.431274 
	C344.999054,462.610474 345.043945,386.789581 344.893555,310.969086 
	C344.884064,306.183594 346.120392,304.884888 350.945221,304.892059 
	C444.596039,305.031799 538.247131,304.989349 632.348022,304.976807 
	C632.846191,326.009369 632.894470,347.049438 632.409668,368.548309 
	C562.276978,369.004761 492.677307,369.002350 423.077606,369.000031 
	C419.913971,368.999939 416.738525,369.172089 413.589935,368.954620 
	C410.173737,368.718689 408.826538,369.885559 408.934784,373.462067 
	C409.156342,380.781647 409.243439,388.123718 408.908783,395.434723 
	C408.708893,399.801788 410.021301,401.103760 414.483948,401.095215 
	C487.247009,400.955750 560.010376,400.990082 632.773682,400.985199 
z"/>
<path fill="#D7B354" opacity="1.000000" stroke="none" 
	d="
M632.863037,480.524414 
	C560.010376,480.990082 487.247009,480.955750 414.483948,481.095215 
	C410.021301,481.103760 408.708893,479.801788 408.908783,475.434723 
	C409.243408,468.123718 409.156250,460.781647 408.934723,453.462067 
	C408.826508,449.885559 410.173737,448.718658 413.589935,448.954590 
	C416.738525,449.172058 419.913971,448.999939 423.077606,449.000031 
	C492.677307,449.002350 562.276978,449.004761 632.325195,449.010986 
	C632.833252,459.364410 632.892883,469.714020 632.863037,480.524414 
z"/>
<path fill="#D7B354" opacity="1.000000" stroke="none" 
	d="
M632.863037,400.524414 
	C560.010376,400.990082 487.247009,400.955750 414.483948,401.095215 
	C410.021301,401.103760 408.708893,399.801788 408.908783,395.434723 
	C409.243439,388.123718 409.156342,380.781647 408.934784,373.462067 
	C408.826538,369.885559 410.173737,368.718689 413.589935,368.954620 
	C416.738525,369.172089 419.913971,368.999939 423.077606,369.000031 
	C492.677307,369.002350 562.276978,369.004761 632.325195,369.010986 
	C632.833252,379.364410 632.892822,389.714020 632.863037,400.524414 
z"/>
<path fill="#CCD0D2" opacity="1.000000" stroke="none" 
	d="
M919.643799,913.186157 
	C919.877686,913.635559 919.891174,914.277039 919.656311,914.989685 
	C919.413147,914.499939 919.418274,913.939087 919.643799,913.186157 
z"/>
<path fill="#3DB39E" opacity="1.000000" stroke="none" 
	d="
M968.871216,887.383911 
	C968.774963,890.949768 968.468567,894.836548 967.852051,898.869873 
	C967.914856,895.245850 968.287964,891.475403 968.871216,887.383911 
z"/>
<path fill="#3DB39E" opacity="1.000000" stroke="none" 
	d="
M967.423035,127.381927 
	C968.224670,130.775406 968.907654,134.568436 969.335876,138.647888 
	C968.488892,135.216705 967.896667,131.499100 967.423035,127.381927 
z"/>
<path fill="#3DB39E" opacity="1.000000" stroke="none" 
	d="
M966.772095,904.249390 
	C966.741699,905.295532 966.474792,906.555969 965.955933,907.923157 
	C965.981079,906.841187 966.258301,905.652405 966.772095,904.249390 
z"/>
<path fill="#3DB39E" opacity="1.000000" stroke="none" 
	d="
M965.598145,118.264130 
	C966.297241,119.182816 966.872742,120.396523 967.229248,121.786720 
	C966.498413,120.828522 965.986511,119.693840 965.598145,118.264130 
z"/>
<path fill="#3DB39E" opacity="1.000000" stroke="none" 
	d="
M964.259521,112.305603 
	C964.739746,112.842171 965.137634,113.691414 965.319702,114.736038 
	C964.794983,114.160378 964.486084,113.389328 964.259521,112.305603 
z"/>
<path fill="#3DB39E" opacity="1.000000" stroke="none" 
	d="
M964.879761,911.296082 
	C965.029297,912.002441 964.958252,912.941711 964.606689,913.943481 
	C964.437195,913.180298 964.548218,912.354675 964.879761,911.296082 
z"/>
<path fill="#3DB39E" opacity="1.000000" stroke="none" 
	d="
M959.358948,926.579590 
	C959.384277,927.192932 959.168274,927.998108 958.632935,928.903381 
	C958.581604,928.259460 958.849548,927.515442 959.358948,926.579590 
z"/>
</svg>